<svg width="32" height="32" viewBox="0 0 32 32" fill="none" xmlns="http://www.w3.org/2000/svg">
<path d="M29.5036 15.7269C28.4442 16.0471 27.4522 16.5113 26.5499 17.0957C26.4784 17.1423 26.4068 17.1882 26.3361 17.2364C28.5059 17.8374 30.4462 18.9595 31.9991 20.4549V15.2563C31.1363 15.3244 30.3015 15.4849 29.5036 15.7269Z" fill="#A2CC39"/>
<path d="M24.7288 18.5594C24.0667 18.4447 23.3848 18.3846 22.6881 18.3846C21.9355 18.3846 21.1994 18.455 20.4871 18.5886C17.2702 19.1904 14.5345 21.0859 12.8911 23.6899C13.2612 23.8583 13.6232 24.0402 13.9768 24.2339C17.1353 25.9673 19.6193 28.7065 20.9551 31.9993H28.9771C30.6468 31.9993 31.9999 30.6985 31.9999 29.0932V22.9837C30.2981 20.7047 27.7145 19.0757 24.7288 18.5594Z" fill="#A2CC39"/>
<path d="M12.17 25.2174L12.1017 25.1873C11.9627 25.1248 11.8221 25.064 11.6806 25.0054C11.5103 26.8305 10.1417 28.4287 8.1857 28.8589C7.90523 28.9205 7.62392 28.9506 7.34756 28.9506C5.63754 28.9506 4.08874 27.8174 3.69064 26.1481C3.30488 24.5278 4.36182 22.9083 6.04633 22.5374C7.466 22.2251 8.88567 23.0807 9.21056 24.4456C9.34463 25.0078 9.24264 25.5867 8.9235 26.0753C8.60437 26.564 8.10674 26.9041 7.52193 27.033C7.01855 27.1437 6.50201 27.0599 6.06525 26.7965C5.62849 26.5332 5.32416 26.122 5.20901 25.6388C5.12676 25.2941 5.35131 24.9501 5.70992 24.871C6.06854 24.7919 6.42634 25.0078 6.50859 25.3526C6.54396 25.502 6.63855 25.6294 6.77344 25.7108C6.90833 25.7923 7.06872 25.8183 7.22418 25.7843C7.46189 25.7322 7.66423 25.5938 7.79419 25.3953C7.92414 25.1968 7.96527 24.9612 7.91098 24.7326C7.74977 24.0565 7.04734 23.6335 6.34409 23.7877C5.37598 24.0012 4.76896 24.9319 4.99022 25.8626C5.28797 27.112 6.58755 27.8965 7.88795 27.6102C9.48446 27.2583 10.5266 25.8049 10.3448 24.2756C10.3201 24.1664 10.2946 24.0573 10.2683 23.9498C10.2379 23.8248 10.2058 23.6999 10.1721 23.5765C10.0865 23.2673 9.98949 22.9629 9.88256 22.6632C8.91939 19.9754 7.10985 17.6671 4.75991 16.0326C4.16935 15.6214 3.54423 15.2529 2.88951 14.9318C2.76202 14.8694 2.6337 14.8085 2.50375 14.7492C1.70673 14.387 0.870225 14.0936 0 13.877V23.3693V25.2031V29.0945C0 30.6998 1.35304 32.0006 3.02276 32.0006H7.91921H9.72381H11.4643H11.5589H19.0627C17.6792 29.0257 15.2248 26.6139 12.17 25.2174Z" fill="#1E94D1"/>
<path d="M12.7433 8.92539C9.1464 8.92539 6.1039 11.2044 5.09221 14.3421C7.96526 16.1467 10.191 18.8218 11.3672 21.9794C13.6834 19.2876 16.9875 17.4111 20.7464 16.8639C20.7488 16.784 20.753 16.705 20.753 16.6251C20.7521 12.3731 17.166 8.92539 12.7433 8.92539Z" fill="#F48220"/>
<path d="M27.6371 12.6626C26.257 12.6768 25.0026 12.1067 24.3569 11.0304C23.4703 9.55406 24.0148 7.60244 25.5471 6.30954C24.0806 7.24739 22.29 7.34465 21.0438 6.41233C19.6579 5.37564 19.3889 3.39951 20.2707 1.65903H20.2698C19.5937 3.07213 18.2991 4.02896 16.812 4.02896C14.796 4.02896 13.1329 2.27188 12.8877 0.000790768C12.8664 0.000790768 12.845 0 12.8228 0C12.5777 2.27108 10.9153 4.02896 8.89853 4.02896C7.4435 4.02896 6.17188 3.11325 5.48508 1.74997C5.4785 1.73653 5.47274 1.72308 5.46616 1.70964H5.4637C6.31583 3.43826 6.03946 5.38592 4.66668 6.41313C3.42056 7.34465 1.62994 7.24739 0.163388 6.30954C1.69656 7.60323 2.24025 9.55406 1.35357 11.0304C1.04431 11.546 0.594387 11.9438 0.0581055 12.2182C1.2195 12.4593 2.32743 12.8357 3.36545 13.3292C4.74893 9.63788 8.42394 6.99908 12.7405 6.99908C18.2423 6.99908 22.7029 11.2874 22.7029 16.5769C22.7029 16.5911 22.702 16.6045 22.702 16.6188C22.9833 16.5974 23.2712 16.5966 23.564 16.6188C23.9835 16.6504 24.3849 16.7271 24.7633 16.841C24.6111 16.3626 24.5733 15.8588 24.6736 15.3551C24.9426 14.0069 26.1229 13.0081 27.6371 12.6626Z" fill="#F48220"/>
</svg>
